<svg xmlns="http://www.w3.org/2000/svg" viewBox="0 0 48 48">
  <path fill="#fbc02d" d="M43.6 20.5H42V20H24v8h11.3C33.4 33.7 29.2 36 24 36c-6.6 0-12-5.4-12-12s5.4-12 12-12c3 0 5.7 1.1 7.8 3l5.7-5.7C33.5 6.4 28.9 4 24 4 12.9 4 4 12.9 4 24s8.9 20 20 20 20-8.9 20-20c0-1.2-.1-2.3-.4-3.5z"/>
  <path fill="#e53935" d="M6.3 14.1l6.6 4.8C14.5 15.3 18.9 12 24 12c3 0 5.7 1.1 7.8 3l5.7-5.7C33.5 6.4 28.9 4 24 4c-7.7 0-14.3 4.3-17.7 10.6z"/>
  <path fill="#4caf50" d="M24 44c5.2 0 9.9-2 13.4-5.2l-6.2-5.2C28.7 35.4 26.4 36 24 36c-5.2 0-9.4-3.3-11-8H6.2l-6 4.6C6.3 39.1 14.5 44 24 44z"/>
  <path fill="#1565c0" d="M43.6 20.5H42V20H24v8h11.3c-1.2 3.2-4 5.7-7.3 6.7l6.2 5.2c-1.1.7-2.2 1.3-3.5 1.7 3.1 2.5 7 4 11.3 4 7.7 0 14.3-4.3 17.7-10.6z"/>
</svg>
